<svg width="20" height="20" viewBox="0 0 36 36" fill="none" xmlns="http://www.w3.org/2000/svg">
<circle cx="18" cy="18" r="18" fill="#0077B5"/>
<path d="M29.2127 17.4561L17.9163 7.65177C17.8296 7.57702 17.719 7.53516 17.6024 7.53516H14.9562C14.7349 7.53516 14.6333 7.81024 14.8007 7.95376L25.2718 17.0435H7.77411C7.64255 17.0435 7.53491 17.1511 7.53491 17.2827V19.0767C7.53491 19.2082 7.64255 19.3159 7.77411 19.3159H25.2688L14.7977 28.4056C14.6303 28.5521 14.7319 28.8242 14.9532 28.8242H17.6891C17.7459 28.8242 17.8027 28.8033 17.8445 28.7644L29.2127 18.9033C29.3162 18.8133 29.3992 18.7021 29.456 18.5773C29.5129 18.4524 29.5423 18.3168 29.5423 18.1797C29.5423 18.0425 29.5129 17.9069 29.456 17.7821C29.3992 17.6573 29.3162 17.5461 29.2127 17.4561Z" fill="white"/>
</svg>
